<svg width="145" height="57" viewBox="0 0 145 57" fill="none" xmlns="http://www.w3.org/2000/svg">
<path d="M7.733 15.674V41.5H2.553V15.674H7.733ZM24.2099 20.706C26.6519 20.706 28.6252 21.483 30.1299 23.037C31.6345 24.5663 32.3869 26.7123 32.3869 29.475V41.5H27.2069V30.178C27.2069 28.55 26.7999 27.3043 25.9859 26.441C25.1719 25.553 24.0619 25.109 22.6559 25.109C21.2252 25.109 20.0905 25.553 19.2519 26.441C18.4379 27.3043 18.0309 28.55 18.0309 30.178V41.5H12.8509V21.002H18.0309V23.555C18.7215 22.667 19.5972 21.9763 20.6579 21.483C21.7432 20.965 22.9272 20.706 24.2099 20.706ZM43.3438 25.257V35.173C43.3438 35.8637 43.5041 36.3693 43.8248 36.69C44.1701 36.986 44.7374 37.134 45.5268 37.134H47.9318V41.5H44.6758C40.3098 41.5 38.1268 39.3787 38.1268 35.136V25.257H35.6848V21.002H38.1268V15.933H43.3438V21.002H47.9318V25.257H43.3438ZM70.7125 30.807C70.7125 31.547 70.6632 32.213 70.5645 32.805H55.5795C55.7028 34.285 56.2208 35.4443 57.1335 36.283C58.0462 37.1217 59.1685 37.541 60.5005 37.541C62.4245 37.541 63.7935 36.7147 64.6075 35.062H70.1945C69.6025 37.0353 68.4678 38.6633 66.7905 39.946C65.1132 41.204 63.0535 41.833 60.6115 41.833C58.6382 41.833 56.8622 41.4013 55.2835 40.538C53.7295 39.65 52.5085 38.4043 51.6205 36.801C50.7572 35.1977 50.3255 33.3477 50.3255 31.251C50.3255 29.1297 50.7572 27.2673 51.6205 25.664C52.4838 24.0607 53.6925 22.8273 55.2465 21.964C56.8005 21.1007 58.5888 20.669 60.6115 20.669C62.5602 20.669 64.2992 21.0883 65.8285 21.927C67.3825 22.7657 68.5788 23.962 69.4175 25.516C70.2808 27.0453 70.7125 28.809 70.7125 30.807ZM65.3475 29.327C65.3228 27.995 64.8418 26.9343 63.9045 26.145C62.9672 25.331 61.8202 24.924 60.4635 24.924C59.1808 24.924 58.0955 25.3187 57.2075 26.108C56.3442 26.8727 55.8138 27.9457 55.6165 29.327H65.3475ZM79.6734 14.12V41.5H74.4934V14.12H79.6734Z" fill="white"/>
<path d="M126.054 9.82251H120.146V15.7116L126.054 11.9067V9.82251Z" fill="#00C7FD"/>
<path d="M120.146 41.9999H126.054V16.8064L120.146 21.3071V41.9999Z" fill="white"/>
<path d="M105.814 32.2273L109.591 42H115.81L110.659 28.5361L105.814 32.2273Z" fill="white"/>
<path d="M145 1L108.996 24.1895L103.961 27.4325L94.5895 33.4689L100.46 18.3711L103.56 26.3948L108.598 23.1498L103.508 9.84671H97.3342L86.1996 38.8728L85 42H91.1909H91.2725L91.3073 41.9112L105.405 31.1694L110.253 27.4755L145 1Z" fill="#00C7FD"/>
</svg>
