<svg width="40" height="40" viewBox="0 0 40 40" fill="none" xmlns="http://www.w3.org/2000/svg">
<path d="M20.31 24.2533C19.2816 24.2533 18.6816 25.2316 18.6816 26.5416C18.6816 27.86 19.3 28.7916 20.32 28.7916C21.3483 28.7916 21.9383 27.8116 21.9383 26.5016C21.9383 25.2916 21.3583 24.2533 20.31 24.2533Z" fill="#00A3F6"/>
<path d="M23.3332 3.33337H9.99984C9.11578 3.33337 8.26794 3.68456 7.64281 4.30968C7.01769 4.93481 6.6665 5.78265 6.6665 6.66671V33.3334C6.6665 34.2174 7.01769 35.0653 7.64281 35.6904C8.26794 36.3155 9.11578 36.6667 9.99984 36.6667H29.9998C30.8839 36.6667 31.7317 36.3155 32.3569 35.6904C32.982 35.0653 33.3332 34.2174 33.3332 33.3334V13.3334L23.3332 3.33337ZM15.2582 29.09C14.5482 29.68 13.4698 29.9584 12.1515 29.9584C11.3598 29.9584 10.8015 29.9084 10.4215 29.8584V23.24C11.1031 23.1419 11.7912 23.0956 12.4798 23.1017C13.7598 23.1017 14.5898 23.3317 15.2382 23.8217C15.9382 24.3417 16.3782 25.1717 16.3782 26.3584C16.3782 27.65 15.9082 28.54 15.2582 29.09ZM20.2415 30C18.2415 30 17.0732 28.49 17.0732 26.57C17.0732 24.5517 18.3615 23.0434 20.3515 23.0434C22.4198 23.0434 23.5498 24.5917 23.5498 26.4517C23.5482 28.66 22.2082 30 20.2415 30ZM27.9998 28.73C28.4582 28.73 28.9682 28.6284 29.2698 28.51L29.4998 29.6984C29.2198 29.8384 28.5898 29.9884 27.7715 29.9884C25.4432 29.9884 24.2432 28.54 24.2432 26.62C24.2432 24.3217 25.8815 23.0434 27.9215 23.0434C28.7115 23.0434 29.3098 23.2034 29.5798 23.3434L29.2698 24.5534C28.8641 24.3857 28.4289 24.3007 27.9898 24.3034C26.7798 24.3034 25.8398 25.0334 25.8398 26.5334C25.8398 27.8817 26.6398 28.73 27.9998 28.73ZM23.3332 15H21.6665V6.66671L29.9998 15H23.3332Z" fill="#00A3F6"/>
<path d="M12.64 24.2717C12.3017 24.2717 12.0817 24.3017 11.9517 24.3317V28.7401C12.0817 28.7701 12.2917 28.7701 12.48 28.7701C13.86 28.7801 14.7583 28.0217 14.7583 26.4117C14.7683 25.0117 13.95 24.2717 12.64 24.2717Z" fill="#00A3F6"/>
</svg>
