<svg width="40" height="40" viewBox="0 0 40 40" fill="none" xmlns="http://www.w3.org/2000/svg">
<path d="M33.333 11.6667V8.33333C33.333 6.495 31.838 5 29.9997 5H8.33301C5.57634 5 3.33301 7.24333 3.33301 10V30C3.33301 33.6683 6.32301 35 8.33301 35H33.333C35.1713 35 36.6663 33.505 36.6663 31.6667V15C36.6663 13.1617 35.1713 11.6667 33.333 11.6667ZM29.9997 26.6667H26.6663V20H29.9997V26.6667ZM8.33301 11.6667C7.90387 11.6475 7.49868 11.4635 7.2018 11.153C6.90492 10.8426 6.73923 10.4296 6.73923 10C6.73923 9.57044 6.90492 9.15743 7.2018 8.84697C7.49868 8.53651 7.90387 8.35253 8.33301 8.33333H29.9997V11.6667H8.33301Z" fill="#00A3F6"/>
</svg>
