<svg width="41" height="43" viewBox="0 0 41 43" fill="none" xmlns="http://www.w3.org/2000/svg">
<path fill-rule="evenodd" clip-rule="evenodd" d="M24.8856 2.48288C24.8856 1.49941 24.0946 0.702148 23.1189 0.702148C22.1432 0.702148 21.3522 1.49941 21.3522 2.48288V3.37325H20.4688C19.4931 3.37325 18.7021 4.17051 18.7021 5.15398C18.7021 6.13745 19.4931 6.93472 20.4688 6.93472H21.3522V7.82508C21.3522 8.80855 22.1432 9.60582 23.1189 9.60582C24.0946 9.60582 24.8856 8.80855 24.8856 7.82508V6.93472H25.769C26.7447 6.93472 27.5357 6.13745 27.5357 5.15398C27.5357 4.17051 26.7447 3.37325 25.769 3.37325H24.8856V2.48288ZM21.7135 18.5095C20.3336 17.1186 18.0964 17.1186 16.7165 18.5095L13.036 22.2191L1.03492 34.3155C-0.344973 35.7063 -0.344973 37.9613 1.03492 39.3521L3.32364 41.659C4.70353 43.0499 6.94078 43.0499 8.32067 41.659L20.3218 29.5627L24.0022 25.853C25.3821 24.4622 25.3821 22.2072 24.0022 20.8164L21.7135 18.5095ZM19.0725 25.7852L16.7838 23.4783L19.215 21.0278L21.5037 23.3347L19.0725 25.7852ZM14.2853 25.9966L16.574 28.3035L5.82215 39.1407L3.53343 36.8338L14.2853 25.9966ZM32.8358 27.4132C33.8116 27.4132 34.6026 28.2104 34.6026 29.1939C35.5783 29.1939 36.3693 29.9911 36.3693 30.9746C36.3693 31.9581 35.5783 32.7554 34.6026 32.7554C34.6026 33.7388 33.8116 34.5361 32.8358 34.5361C31.8601 34.5361 31.0691 33.7388 31.0691 32.7554C30.0934 32.7554 29.3024 31.9581 29.3024 30.9746C29.3024 29.9911 30.0934 29.1939 31.0691 29.1939C31.0691 28.2104 31.8601 27.4132 32.8358 27.4132ZM36.2176 8.71532C35.5276 8.0199 34.409 8.0199 33.7191 8.71532C33.0291 9.41074 33.0291 10.5382 33.7191 11.2337L34.6023 12.1239L33.7191 13.0141C33.0291 13.7095 33.0291 14.837 33.7191 15.5325C34.409 16.2279 35.5276 16.2279 36.2176 15.5325L37.1008 14.6422L37.984 15.5325C38.674 16.2279 39.7926 16.2279 40.4825 15.5325C41.1725 14.837 41.1725 13.7095 40.4825 13.0141L39.5993 12.1239L40.4825 11.2337C41.1725 10.5382 41.1725 9.41074 40.4825 8.71532C39.7926 8.0199 38.674 8.0199 37.984 8.71532L37.1008 9.60555L36.2176 8.71532Z" fill="#00A3F6"/>
</svg>
