<svg width="38" height="35" viewBox="0 0 38 35" fill="none" xmlns="http://www.w3.org/2000/svg">
<path fill-rule="evenodd" clip-rule="evenodd" d="M31.2678 5.97088C34.4609 8.32831 34.9122 12.7484 32.2556 15.6443L19.0001 30.0934L5.74477 15.6458C3.08767 12.7497 3.53898 8.329 6.73245 5.97127C10.0009 3.55821 14.7458 4.32794 16.9849 7.63442L17.736 8.74369C18.1857 9.40779 19.1174 9.60004 19.8169 9.17309C20.036 9.03935 20.2063 8.86072 20.3231 8.65803L21.0156 7.63497C23.2541 4.32795 27.9993 3.55772 31.2678 5.97088ZM19.0004 5.39278C15.6348 1.26816 9.31051 0.44608 4.88378 3.71433C0.325463 7.07973 -0.318738 13.3898 3.47398 17.5237L17.8672 33.2115C18.4134 33.8069 19.3645 33.8691 19.9916 33.3505C20.0731 33.2832 20.1451 33.2093 20.2075 33.1304L34.5265 17.5221C38.3186 13.3884 37.6744 7.07901 33.1165 3.71394C28.6898 0.445706 22.3655 1.26809 19.0004 5.39278Z" fill="#00A3F6" stroke="#00A3F6" stroke-width="2" stroke-linecap="round" stroke-linejoin="round"/>
</svg>
