<svg width="40" height="40" viewBox="0 0 40 40" fill="none" xmlns="http://www.w3.org/2000/svg">
<path d="M33.3333 3.33337H13.3333C12.4493 3.33337 11.6014 3.68456 10.9763 4.30968C10.3512 4.93481 10 5.78265 10 6.66671V26.6667C10 27.5508 10.3512 28.3986 10.9763 29.0237C11.6014 29.6488 12.4493 30 13.3333 30H33.3333C34.2174 30 35.0652 29.6488 35.6904 29.0237C36.3155 28.3986 36.6667 27.5508 36.6667 26.6667V6.66671C36.6667 5.78265 36.3155 4.93481 35.6904 4.30968C35.0652 3.68456 34.2174 3.33337 33.3333 3.33337ZM23.3333 7.50004C24.4384 7.50004 25.4982 7.93903 26.2796 8.72043C27.061 9.50183 27.5 10.5616 27.5 11.6667C27.5 12.7718 27.061 13.8316 26.2796 14.613C25.4982 15.3944 24.4384 15.8334 23.3333 15.8334C22.2283 15.8334 21.1685 15.3944 20.3871 14.613C19.6057 13.8316 19.1667 12.7718 19.1667 11.6667C19.1667 10.5616 19.6057 9.50183 20.3871 8.72043C21.1685 7.93903 22.2283 7.50004 23.3333 7.50004ZM31.6667 25H15V24.5834C15 21.5017 18.7567 18.3334 23.3333 18.3334C27.91 18.3334 31.6667 21.5017 31.6667 24.5834V25Z" fill="#00A3F6"/>
<path d="M6.66634 13.3334H3.33301V33.3334C3.33301 35.1717 4.82801 36.6667 6.66634 36.6667H26.6663V33.3334H6.66634V13.3334Z" fill="#00A3F6"/>
</svg>
