<svg width="33" height="35" viewBox="0 0 33 35" fill="none" xmlns="http://www.w3.org/2000/svg">
<path fill-rule="evenodd" clip-rule="evenodd" d="M15.2455 1.00424C16.0352 0.601451 16.9648 0.60145 17.7545 1.00424L31.4493 7.98906C33.5169 9.04359 33.5169 12.0533 31.4493 13.1078L29.4544 14.1253L31.4493 15.1428C33.5169 16.1973 33.5169 19.207 31.4493 20.2615L29.4544 21.279L31.4493 22.2965C33.5169 23.351 33.5169 26.3607 31.4493 27.4152L17.7545 34.4001C16.9648 34.8028 16.0352 34.8028 15.2455 34.4001L1.55067 27.4152C-0.51689 26.3607 -0.516887 23.351 1.55067 22.2965L3.54556 21.279L1.55067 20.2615C-0.51689 19.207 -0.516887 16.1973 1.55067 15.1428L3.54556 14.1253L1.55067 13.1078C-0.516892 12.0533 -0.516887 9.04359 1.55067 7.98907L15.2455 1.00424ZM7.3238 12.8531C7.3147 12.8483 7.30555 12.8437 7.29635 12.8391L2.80518 10.5485L16.5 3.56363L30.1948 10.5484L25.7034 12.8392C25.6944 12.8437 25.6854 12.8483 25.6764 12.853L16.5 17.5333L7.3238 12.8531ZM6.68185 15.7249L2.80518 17.7022L7.29618 19.9927L7.32397 20.0069L16.5 24.687L25.6764 20.0067L25.7035 19.9929L30.1948 17.7021L26.3181 15.7249L17.7545 20.0927C16.9648 20.4954 16.0352 20.4954 15.2455 20.0927L6.68185 15.7249ZM2.80518 24.8559L6.68185 22.8786L15.2455 27.2464C16.0352 27.6492 16.9648 27.6492 17.7545 27.2464L26.3181 22.8786L30.1948 24.8558L16.5 31.8407L2.80518 24.8559Z" fill="#00A3F6"/>
</svg>
