<svg width="40" height="40" viewBox="0 0 40 40" fill="none" xmlns="http://www.w3.org/2000/svg">
<path d="M33.3337 18.3317H36.6671C36.6671 9.78171 30.2121 3.33337 21.6504 3.33337V6.66671C28.4204 6.66671 33.3337 11.5717 33.3337 18.3317Z" fill="#00A3F6"/>
<path d="M21.6671 13.3333C25.1721 13.3333 26.6671 14.8283 26.6671 18.3333H30.0005C30.0005 12.9583 27.0421 9.99999 21.6671 9.99999V13.3333ZM27.3705 22.405C27.0502 22.1139 26.6294 21.9587 26.1968 21.972C25.7642 21.9854 25.3538 22.1664 25.0521 22.4767L21.0638 26.5783C20.1038 26.395 18.1738 25.7933 16.1871 23.8117C14.2005 21.8233 13.5988 19.8883 13.4205 18.935L17.5188 14.945C17.8295 14.6435 18.0107 14.233 18.0241 13.8003C18.0374 13.3676 17.8819 12.9467 17.5905 12.6267L11.4321 5.85499C11.1405 5.53392 10.7353 5.33917 10.3024 5.31209C9.86951 5.28502 9.44313 5.42776 9.1138 5.70999L5.49714 8.81166C5.20899 9.10085 5.037 9.48574 5.0138 9.89332C4.9888 10.31 4.51214 20.18 12.1655 27.8367C18.8421 34.5117 27.2055 35 29.5088 35C29.8455 35 30.0521 34.99 30.1071 34.9867C30.5147 34.9638 30.8993 34.7911 31.1871 34.5017L34.2871 30.8833C34.5696 30.5542 34.7126 30.1279 34.6858 29.6951C34.6591 29.2622 34.4646 28.8568 34.1438 28.565L27.3705 22.405Z" fill="#00A3F6"/>
</svg>
