<?xml version="1.0" standalone="no"?>
<!DOCTYPE svg PUBLIC "-//W3C//DTD SVG 20010904//EN"
 "http://www.w3.org/TR/2001/REC-SVG-20010904/DTD/svg10.dtd">
<svg version="1.0" xmlns="http://www.w3.org/2000/svg"
 width="300.000000pt" height="300.000000pt" viewBox="0 0 300.000000 300.000000"
 preserveAspectRatio="xMidYMid meet">
<metadata>
Created by potrace 1.14, written by Peter Selinger 2001-2017
</metadata>
<g transform="translate(0.000000,300.000000) scale(0.100000,-0.100000)"
fill="#000000" stroke="none">
<path d="M0 1500 l0 -1500 1500 0 1500 0 0 1500 0 1500 -1500 0 -1500 0 0
-1500z m2010 -150 l0 -430 -105 0 -105 0 0 353 0 353 103 76 c56 42 103 77
105 77 1 1 2 -192 2 -429z m-442 -215 l80 -210 -100 -3 c-56 -1 -105 1 -109 5
-9 9 -130 325 -127 329 2 1 39 30 83 63 68 53 80 59 86 44 4 -10 43 -112 87
-228z"/>
</g>
</svg>
